<svg class="svg-icon" style="width: 1em; height: 1em;vertical-align: middle;fill: currentColor;overflow: hidden;" viewBox="0 0 1024 1024" version="1.1" xmlns="http://www.w3.org/2000/svg"><path d="M957.462584 384.678196l-131.645273-57.960063L825.817312 84.214007c0-15.44783-21.868053-37.306674-37.309744-37.306674L266.195711 46.907333c-15.44783 0-37.309744 21.858844-37.309744 37.306674l0 242.504126-131.645273 57.960063c-10.927887 4.379751-17.544585 14.874779-17.555841 25.979698l-0.031722 0 0 503.663124c0 15.443737 12.537548 27.979238 27.983331 27.979238l839.434447 0c15.441691 0 27.979238-12.535501 27.979238-27.979238L975.050148 410.657894l-0.024559 0C975.007169 399.552975 968.390471 389.057947 957.462584 384.678196L957.462584 384.678196zM900.435777 419.990446l-74.618465 37.306674 0-74.618465L900.435777 419.990446zM769.854742 102.869902 769.854742 494.602771 527.35471 643.546012 284.851607 494.602771 284.851607 102.869902 769.854742 102.869902zM228.885967 457.297121l-93.266174-37.306674 93.266174-37.311791L228.885967 457.297121 228.885967 457.297121zM135.615701 886.33871 135.615701 466.276632 512.595564 700.269921c4.527107 2.783393 9.634428 4.193509 14.759145 4.193509 5.118578 0 10.225899-1.410116 14.759145-4.211928l376.974747-233.973846 0 420.061055L135.615701 886.33871 135.615701 886.33871zM583.316256 214.794018l111.921046 0c15.4509 0 27.983331-12.535501 27.983331-27.984355 0-15.441691-12.531408-27.983331-27.983331-27.983331L583.316256 158.826332c-15.44783 0-27.983331 12.540617-27.983331 27.983331C555.333948 202.258517 567.869449 214.794018 583.316256 214.794018L583.316256 214.794018zM359.465978 326.718133l335.771323 0c15.4509 0 27.983331-12.535501 27.983331-27.984355 0-15.441691-12.531408-27.977191-27.983331-27.977191L359.465978 270.756587c-15.44783 0-27.983331 12.535501-27.983331 27.977191C331.482647 314.182632 344.018148 326.718133 359.465978 326.718133L359.465978 326.718133zM359.465978 438.637132l335.771323 0c15.4509 0 27.983331-12.531408 27.983331-27.979238 0-15.441691-12.531408-27.983331-27.983331-27.983331L359.465978 382.674563c-15.44783 0-27.983331 12.540617-27.983331 27.983331C331.482647 426.105724 344.018148 438.637132 359.465978 438.637132L359.465978 438.637132z"  /></svg>